Coordinates
version=1
nRows=24
nColumns=22
inDegrees=yes

Units are S.I. units (second, meters, Newtons, ...)
If the header above contains a line with 'inDegrees', this indicates whether rotational values are in degrees (yes) or radians (no).

endheader
time	pelvis_tilt	pelvis_list	pelvis_rotation	pelvis_tx	pelvis_ty	pelvis_tz	hip_flexion_r	hip_adduction_r	hip_rotation_r	knee_angle_r	ankle_angle_r	subtalar_angle_r	hip_flexion_l	hip_adduction_l	hip_rotation_l	knee_angle_l	ankle_angle_l	subtalar_angle_l	lumbar_extension	lumbar_bending	lumbar_rotation
      3.91000000	      4.52425329	     -2.23385892	     25.45254318	     -0.13070799	      1.00241534	     -0.57211308	      4.49978681	     14.60898659	     -5.66498616	    -19.48921130	     11.22793698	    -12.71152936	     18.45145383	    -12.87162114	     -0.08465070	    -55.63581473	      7.25204070	      1.25697968	    -16.53138780	      6.93951940	      7.23634867
      3.92000000	      4.41612817	     -2.44115797	     24.57073509	     -0.12490063	      1.00244119	     -0.57338763	      3.98148081	     14.83612991	     -4.74870059	    -19.10677557	     11.24244120	    -12.69790605	     18.99773847	    -13.14256078	      0.13625642	    -53.86470291	      7.86541675	      0.31779537	    -16.49041113	      6.90742151	      7.77202758
      3.93000000	      4.30274033	     -2.62169500	     23.71179575	     -0.11920910	      1.00244638	     -0.57477572	      3.48618249	     15.00617091	     -3.88671206	    -18.78085979	     11.29082218	    -12.66430672	     19.50700445	    -13.32387039	      0.34086344	    -52.01268811	      8.48278439	     -0.58659702	    -16.46623741	      6.87414838	      8.26291555
      3.94000000	      4.15042870	     -2.79465822	     22.84592912	     -0.11363042	      1.00239076	     -0.57621903	      3.04788969	     15.13664936	     -2.98437561	    -18.49858014	     11.35815836	    -12.61615523	     20.02826180	    -13.42123903	      0.52645791	    -50.10955277	      8.94134914	     -1.12582705	    -16.41936196	      6.83850152	      8.73936699
      3.95000000	      3.99883082	     -2.91099226	     22.02548083	     -0.10810575	      1.00237721	     -0.57784090	      2.58971272	     15.18503871	     -2.16385994	    -18.21929828	     11.45959959	    -12.52379583	     20.49093065	    -13.38007420	      0.74063754	    -48.13461368	      9.30143151	     -1.55876566	    -16.39133800	      6.77714328	      9.10407787
      3.96000000	      3.78912329	     -3.01181189	     21.22599724	     -0.10270023	      1.00226202	     -0.57956854	      2.22370296	     15.17477943	     -1.38392371	    -18.00215658	     11.60191788	    -12.44564326	     20.98898119	    -13.20985425	      1.02995125	    -46.12949645	      9.52320975	     -1.55945492	    -16.31520711	      6.70091517	      9.43196808
      3.97000000	      3.58724538	     -3.06376784	     20.45827664	     -0.09735691	      1.00219300	     -0.58143074	      1.84132916	     15.10156544	     -0.63080776	    -17.79471995	     11.76874972	    -12.32024303	     21.42533511	    -12.90579264	      1.41002058	    -44.07203708	      9.55051649	     -1.31670912	    -16.27071756	      6.60364672	      9.69846601
      3.98000000	      3.41519281	     -3.08627536	     19.73264749	     -0.09207660	      1.00216616	     -0.58343814	      1.43192813	     14.99164841	      0.08241086	    -17.59943323	     11.95575617	    -12.11187587	     21.79438906	    -12.49443449	      1.92695916	    -41.98114290	      9.45727551	     -0.57180372	    -16.27413481	      6.51813741	      9.89981119
      3.99000000	      3.19560461	     -3.08361227	     19.05490584	     -0.08678242	      1.00206279	     -0.58558140	      1.06879241	     14.82089599	      0.70771410	    -17.40128332	     12.16751265	    -11.92377705	     22.17028607	    -11.96817629	      2.56986391	    -39.85102453	      9.20212119	      0.41439925	    -16.21884634	      6.41081477	     10.02156381
      4.00000000	      2.97512901	     -3.06959772	     18.42469514	     -0.08150043	      1.00192588	     -0.58782145	      0.71162869	     14.62657407	      1.28558703	    -17.20254913	     12.37093092	    -11.72778077	     22.51319246	    -11.36588855	      3.38103572	    -37.68909963	      8.81638339	      1.57052971	    -16.16413818	      6.31099350	     10.07770313
      4.01000000	      2.76032286	     -3.03320737	     17.83091263	     -0.07617309	      1.00175789	     -0.59015086	      0.34607459	     14.40014081	      1.81233573	    -17.00521534	     12.60749357	    -11.52612388	     22.79819802	    -10.70227894	      4.32754986	    -35.48928263	      8.37939538	      2.79437420	    -16.11324797	      6.20501009	     10.07764532
      4.02000000	      2.55531008	     -2.99697596	     17.26977376	     -0.07078191	      1.00154990	     -0.59254483	     -0.03388345	     14.16702623	      2.28884944	    -16.79055064	     12.83886653	    -11.32286903	     23.03375656	    -10.02003349	      5.40676620	    -33.26495477	      7.87886357	      4.00079820	    -16.06207899	      6.11478318	     10.04148488
      4.03000000	      2.36846890	     -2.96750587	     16.73394944	     -0.06531081	      1.00129629	     -0.59496031	     -0.43071919	     13.94326684	      2.75040801	    -16.57215599	     13.05848160	    -11.12061919	     23.21506659	     -9.35060630	      6.58462766	    -31.02535965	      7.34215796	      5.13474426	    -16.01791898	      6.04432615	      9.97649364
      4.04000000	      2.20326227	     -2.92990208	     16.22060985	     -0.05973723	      1.00099659	     -0.59741047	     -0.85349369	     13.71040874	      3.16524841	    -16.35114475	     13.30349446	    -10.93502134	     23.32961206	     -8.69312047	      7.83283350	    -28.77491897	      6.85621194	      6.09861795	    -15.98773110	      5.97706986	      9.87604350
      4.05000000	      2.06079984	     -2.91385839	     15.70757444	     -0.05403678	      1.00064399	     -0.59983746	     -1.31311868	     13.50311695	      3.58732695	    -16.09849593	     13.53392859	    -10.74812682	     23.39902299	     -8.10349868	      9.07800892	    -26.54255290	      6.38345075	      6.97371065	    -15.96294123	      5.93835962	      9.79696023
      4.06000000	      1.94353558	     -2.90663632	     15.19031297	     -0.04823343	      1.00023990	     -0.60223781	     -1.79200759	     13.30898280	      4.01131994	    -15.86096047	     13.76380902	    -10.57289021	     23.41724978	     -7.57361802	     10.29233628	    -24.33539583	      5.96690591	      7.71586757	    -15.95773992	      5.91535700	      9.71848516
      4.07000000	      1.85590405	     -2.90218507	     14.65506134	     -0.04230101	      0.99980101	     -0.60459666	     -2.30061720	     13.11944347	      4.42159706	    -15.63446785	     13.99632511	    -10.40390213	     23.37883457	     -7.10585524	     11.43861867	    -22.16811371	      5.60655321	      8.37840190	    -15.97503509	      5.89718996	      9.65811176
      4.08000000	      1.79494603	     -2.90809526	     14.09648220	     -0.03622679	      0.99933115	     -0.60692386	     -2.84104549	     12.94085454	      4.85211598	    -15.40980253	     14.22297431	    -10.23819620	     23.28944585	     -6.70777625	     12.49223723	    -20.05060765	      5.31368777	      9.01169387	    -16.00899513	      5.89303662	      9.64171101
      4.09000000	      1.76521020	     -2.91957311	     13.50410626	     -0.03001891	      0.99883932	     -0.60918939	     -3.41019718	     12.77062819	      5.32185037	    -15.20685914	     14.44537624	    -10.07939451	     23.14500585	     -6.37578202	     13.45231213	    -18.00101466	      5.10119016	      9.64765976	    -16.06988417	      5.89442499	      9.63541116
      4.10000000	      1.76211636	     -2.93700964	     12.88091894	     -0.02367606	      0.99832651	     -0.61140690	     -4.00056261	     12.60583336	      5.82181420	    -15.03030670	     14.66866834	     -9.93241451	     22.94648812	     -6.10397965	     14.34067955	    -16.02632286	      4.96260057	     10.30199406	    -16.15039920	      5.90125440	      9.65654161
      4.11000000	      1.77899542	     -2.96388578	     12.22722643	     -0.01719862	      0.99778203	     -0.61357811	     -4.60016634	     12.44729264	      6.33926783	    -14.88814252	     14.89692995	     -9.80052787	     22.70532912	     -5.88979455	     15.18050937	    -14.14911216	      4.87778757	     10.95724382	    -16.24072903	      5.91572623	      9.70654911
      4.12000000	      1.81225767	     -3.00030481	     11.54350055	     -0.01059556	      0.99720240	     -0.61568783	     -5.19637849	     12.29523969	      6.87130937	    -14.79670839	     15.11954311	     -9.67841765	     22.42899410	     -5.73046395	     15.98632401	    -12.39219184	      4.83027851	     11.57117531	    -16.33978353	      5.93246869	      9.77632521
      4.13000000	      1.85894923	     -3.04707347	     10.83565069	     -0.00387062	      0.99658557	     -0.61773821	     -5.77897030	     12.15260251	      7.42483909	    -14.76998546	     15.31840632	     -9.55521031	     22.13145599	     -5.61930244	     16.74623842	    -10.79372751	      4.81468203	     12.09529746	    -16.44501412	      5.95484548	      9.84846392
      4.14000000	      1.91813195	     -3.11866065	     10.11211907	      0.00299642	      0.99591487	     -0.61973428	     -6.35995978	     12.03225340	      7.97629579	    -14.77650242	     15.52970922	     -9.41753423	     21.83893904	     -5.55791617	     17.43889116	     -9.41612594	      4.85775233	     12.51889458	    -16.54935054	      5.99476057	      9.94585328
